# xmcd
#
# Track frame offsets:
#  150
#  17247
#  35245
#  52900
#  71583
#  90383
#  107308
#  123890
#  142218
#  159534
#  177902
#  196204
#  217347
#  233786
#  248639
#  266252
#
# Disc length: 3712 seconds
#
# Revision: 0
# Processed by: cddbd v1.5.1PL2 Copyright (c) Steve Scherf et al.
# Submitted via: Collectorz.com_Music_Collector 6.10
#
DISCID=dd0e7e10
DTITLE=Various Artist - Let's Dance
DYEAR=2005
DGENRE=Disco
TTITLE0=Total Eclipse of The Heart
TTITLE1=Bucks Fizz - New Beginning
TTITLE2=The Three Degrees - Giving Up Giving In
TTITLE3=Hazell Dean - Love Pains
TTITLE4=Gloria Gaynor - Never Can Say Goodbye
TTITLE5=Fith Dimension - Love Hangover
TTITLE6=Freda Payne - Band of Gold
TTITLE7=Bucks Fizz - Run For Your Life
TTITLE8=Candi Staton - Nights On Broadway
TTITLE9=The Chi-lites - Have You Seen Her?
TTITLE10=Kim Weston - Baby I'm Yours
TTITLE11=The Three Degrees - The Runner
TTITLE12=Brenda Holloway - You Made Me So Very Happy
TTITLE13=Jimmy Ruffin - I'll Say Forever My Love
TTITLE14=Candi Staton - Suspicious Minds
TTITLE15=Sugar Minott - Just Don't Want To Be Lonely
EXTD=
EXTT0=
EXTT1=
EXTT2=
EXTT3=
EXTT4=
EXTT5=
EXTT6=
EXTT7=
EXTT8=
EXTT9=
EXTT10=
EXTT11=
EXTT12=
EXTT13=
EXTT14=
EXTT15=
PLAYORDER=
